<svg width="102" height="94" viewBox="0 0 102 94" fill="none" xmlns="http://www.w3.org/2000/svg">
<rect width="102" height="94" rx="20" fill="#111111"/>
<g filter="url(#filter0_d_86_57)">
<path d="M32 22.1727C32 22.0773 32.0773 22 32.1727 22H42.6011C42.6965 22 42.7738 22.0773 42.7738 22.1727V71.8286C42.7738 71.924 42.6965 72.0013 42.6011 72.0013H32.1727C32.0773 72.0013 32 71.924 32 71.8286V22.1727Z" fill="black"/>
<path d="M70.8203 72.0017C70.8203 68.2831 69.3979 64.601 68.1241 61.1656C66.8504 57.7301 64.9834 54.6086 62.6298 51.9792C60.2762 49.3498 57.4821 47.2641 54.407 45.841C51.3851 44.4426 48.1499 43.7112 44.8802 43.6863C44.7848 43.6855 44.7075 43.7629 44.7075 43.8583V54.2314C44.7075 54.3268 44.7848 54.404 44.8802 54.4051C46.89 54.4298 48.8775 54.8839 50.7354 55.7436C52.6465 56.628 54.383 57.9242 55.8457 59.5583C57.3084 61.1924 58.4686 63.1323 59.2602 65.2674C60.0321 67.3492 60.4387 69.5768 60.4585 71.829C60.4593 71.9244 60.5366 72.0017 60.6319 72.0017H70.8203Z" fill="black"/>
<path d="M60.0408 22.1668C60.044 22.0738 60.1204 22.0001 60.2134 22.0001H70.6477C70.743 22.0001 70.8203 22.0774 70.8203 22.1727V72.0017V58.543C70.8203 58.5144 70.8128 58.4854 70.7991 58.4602C66.5163 50.5322 65.0055 48.5133 59.3448 44.895C59.2933 44.8621 59.2615 44.8036 59.2636 44.7425L60.0408 22.1668Z" fill="black"/>
<path d="M42.6016 20.1699L42.8057 20.1807C43.8157 20.2832 44.6035 21.1358 44.6035 22.1729V41.877C44.6984 41.8639 44.7957 41.8557 44.8945 41.8564L45.5566 41.8701C48.8651 41.9847 52.125 42.7679 55.1758 44.1797C55.9891 44.5561 56.783 44.9759 57.5557 45.4355C57.4692 45.1997 57.4255 44.9444 57.4346 44.6797L58.2119 22.1035L58.2285 21.9043C58.3603 20.9216 59.202 20.1699 60.2139 20.1699H70.6475L70.8525 20.1807C71.8624 20.2833 72.6504 21.1359 72.6504 22.1729V72.002L72.6406 72.1885C72.547 73.1115 71.768 73.832 70.8203 73.832H60.6318C59.5909 73.832 58.7497 73.0429 58.6406 72.0469L58.6279 71.8447C58.6099 69.8012 58.241 67.7835 57.5439 65.9033C56.8291 63.9754 55.786 62.2357 54.4824 60.7793C53.179 59.3231 51.6422 58.1796 49.9668 57.4043C48.4406 56.698 46.8215 56.3069 45.1855 56.2432L44.8574 56.2354C44.7714 56.2343 44.6869 56.2246 44.6035 56.2129V71.8291C44.6033 72.9348 43.7073 73.8308 42.6016 73.8311H32.1729C31.0669 73.8311 30.1702 72.935 30.1699 71.8291V22.1729L30.1807 21.9678C30.2833 20.9579 31.1359 20.1699 32.1729 20.1699H42.6016Z" stroke="white" stroke-width="3.66031" stroke-linejoin="round"/>
</g>
<defs>
<filter id="filter0_d_86_57" x="27.8114" y="18.3397" width="47.1976" height="58.5067" filterUnits="userSpaceOnUse" color-interpolation-filters="sRGB">
<feFlood flood-opacity="0" result="BackgroundImageFix"/>
<feColorMatrix in="SourceAlpha" type="matrix" values="0 0 0 0 0 0 0 0 0 0 0 0 0 0 0 0 0 0 127 0" result="hardAlpha"/>
<feOffset dy="0.656094"/>
<feGaussianBlur stdDeviation="0.264164"/>
<feComposite in2="hardAlpha" operator="out"/>
<feColorMatrix type="matrix" values="0 0 0 0 0 0 0 0 0 0 0 0 0 0 0 0 0 0 0.25 0"/>
<feBlend mode="normal" in2="BackgroundImageFix" result="effect1_dropShadow_86_57"/>
<feBlend mode="normal" in="SourceGraphic" in2="effect1_dropShadow_86_57" result="shape"/>
</filter>
</defs>
</svg>
