<svg width="96" height="61" viewBox="0 0 96 61" fill="none" xmlns="http://www.w3.org/2000/svg">
<path d="M57.5 43.5H50.5L51 48.5L54 52.5L57.5 56.5L63.5 57.5L73 55L77.5 49L78 43.5H76L71 45L67 49L61 48L57.5 43.5Z" fill="#1E1E1E"/>
<g filter="url(#filter0_d_87_2)">
<path d="M5 5.17266C5 5.0773 5.0773 5 5.17266 5H15.6011C15.6965 5 15.7738 5.0773 15.7738 5.17266V54.8286C15.7738 54.924 15.6965 55.0013 15.6011 55.0013H5.17266C5.0773 55.0013 5 54.924 5 54.8286V5.17266Z" fill="#1E1E1E"/>
<path d="M78.8823 22.2394C78.8823 30.1037 72.4431 36.4789 64.5 36.4789C56.5569 36.4789 50.1177 30.1037 50.1177 22.2394C50.1177 14.3751 56.5569 7.99989 64.5 7.99989C72.4431 7.99989 78.8823 14.3751 78.8823 22.2394ZM58.33 22.2394C58.33 25.6132 61.0924 28.3482 64.5 28.3482C67.9076 28.3482 70.67 25.6132 70.67 22.2394C70.67 18.8656 67.9076 16.1307 64.5 16.1307C61.0924 16.1307 58.33 18.8656 58.33 22.2394Z" fill="#1E1E1E"/>
<path d="M43.8203 55.0017C43.8203 51.2831 42.3979 47.601 41.1241 44.1656C39.8504 40.7301 37.9834 37.6086 35.6298 34.9792C33.2762 32.3498 30.4821 30.2641 27.407 28.841C24.3851 27.4426 21.1499 26.7112 17.8802 26.6863C17.7848 26.6855 17.7075 26.7629 17.7075 26.8583V37.2314C17.7075 37.3268 17.7848 37.404 17.8802 37.4051C19.89 37.4298 21.8775 37.8839 23.7354 38.7436C25.6465 39.628 27.383 40.9242 28.8457 42.5583C30.3084 44.1924 31.4686 46.1323 32.2602 48.2674C33.0321 50.3492 33.4387 52.5768 33.4585 54.829C33.4593 54.9244 33.5366 55.0017 33.6319 55.0017H43.8203Z" fill="#1E1E1E"/>
<path d="M33.0408 5.16677C33.044 5.07379 33.1204 5.00006 33.2134 5.00006H43.6477C43.743 5.00006 43.8203 5.07736 43.8203 5.17271V55.0017V41.543C43.8203 41.5144 43.8128 41.4854 43.7991 41.4602C39.5163 33.5322 38.0055 31.5133 32.3448 27.895C32.2933 27.8621 32.2615 27.8036 32.2636 27.7425L33.0408 5.16677Z" fill="#1E1E1E"/>
</g>
<g filter="url(#filter1_d_87_2)">
<path d="M58.3301 41.5459L58.5137 41.5547C59.4193 41.645 60.1333 42.3966 60.1592 43.3252C60.1759 43.9222 60.356 44.7976 60.79 45.5957C61.5079 46.7602 62.7745 47.5637 64.248 47.6465C64.3309 47.65 64.4154 47.6531 64.502 47.6533C66.405 47.6525 68.0027 46.4513 68.5938 44.793C68.722 44.3633 68.8126 43.864 68.8428 43.2812L68.8604 43.1016C68.9937 42.2164 69.7569 41.5459 70.6699 41.5459H78.8818C79.8926 41.5459 80.7128 42.3653 80.7129 43.376C80.7129 47.6831 79.0054 51.588 76.2295 54.4697C75.9935 54.7162 75.7458 54.956 75.4883 55.1904C75.4435 55.2313 75.3987 55.2721 75.3535 55.3125C75.323 55.3396 75.2925 55.3667 75.2617 55.3936C72.4006 57.9118 68.6363 59.44 64.5176 59.4443L64.5186 59.4453C64.5147 59.4454 64.5107 59.4443 64.5068 59.4443C64.5046 59.4443 64.5023 59.4453 64.5 59.4453C64.4863 59.4453 64.4727 59.4444 64.459 59.4443C64.2228 59.4456 63.9763 59.4399 63.7207 59.4268C63.6904 59.4253 63.6601 59.4235 63.6299 59.4219C63.5669 59.4182 63.5034 59.4147 63.4395 59.4102C54.9949 58.869 48.2871 51.9136 48.2871 43.376C48.2872 42.3653 49.1074 41.5459 50.1182 41.5459H58.3301ZM78.8818 22.2393C78.8818 14.4979 72.6426 8.19976 64.8711 8.00488L64.5 8C56.5569 8 50.1182 14.3751 50.1182 22.2393L50.1221 22.6074C50.3161 30.1795 56.4808 36.2828 64.1289 36.4746L64.5 36.4785C72.3188 36.4785 78.6808 30.3016 78.8779 22.6074L78.8818 22.2393ZM52.1982 45.2061C52.9452 49.2529 54.901 51.7762 57.0615 53.3447C59.341 54.9996 61.9428 55.6547 63.8154 55.7666C64.0254 55.7777 64.2366 55.7833 64.4492 55.7842C68.1312 55.5467 70.7511 54.3809 72.6143 52.8408C73.0289 52.4929 73.4215 52.1203 73.7871 51.7227C74.0572 51.4255 74.3062 51.1209 74.5352 50.8115C75.8906 48.98 76.595 46.9236 76.8857 45.2061H72.2842C72.2219 45.4683 72.1464 45.7252 72.0586 45.9766C71.5067 47.7213 70.4978 48.9999 69.2773 49.8682C67.6506 51.0254 65.793 51.3576 64.4951 51.3145V51.3154C61.4905 51.3078 59.4266 49.9915 58.1621 48.2725C57.977 48.0208 57.8117 47.7614 57.6621 47.5C57.2323 46.8 56.911 46.0278 56.7158 45.2061H52.1982ZM17.8799 26.6865C17.7847 26.686 17.707 26.7631 17.707 26.8584V37.2314C17.707 37.3267 17.7847 37.404 17.8799 37.4053C19.8896 37.4299 21.8775 37.8835 23.7354 38.7432C25.6464 39.6275 27.383 40.9245 28.8457 42.5586C30.3083 44.1926 31.4682 46.1326 32.2598 48.2676C33.0316 50.3494 33.4382 52.5769 33.458 54.8291C33.4587 54.9005 33.5026 54.962 33.5645 54.9883L33.6318 55.002H43.8203C43.8203 51.2836 42.3977 47.6014 41.124 44.166C39.8503 40.7306 37.9834 37.6088 35.6299 34.9795C33.4234 32.5145 30.8299 30.5265 27.9805 29.1152L27.4072 28.8408C24.3853 27.4424 21.1496 26.7114 17.8799 26.6865ZM67.0098 22.2393C67.0097 20.9214 65.9205 19.791 64.5 19.791C63.0795 19.791 61.9903 20.9214 61.9902 22.2393C61.9902 23.5572 63.0794 24.6875 64.5 24.6875V28.3486L64.1826 28.3398C61.0277 28.1816 58.4978 25.6773 58.3379 22.5537L58.3301 22.2393C58.3302 18.8656 61.0925 16.1309 64.5 16.1309L64.8174 16.1387C68.0774 16.3022 70.6698 18.9709 70.6699 22.2393L70.6621 22.5537C70.4969 25.7814 67.8011 28.3486 64.5 28.3486V24.6875C65.9206 24.6875 67.0098 23.5572 67.0098 22.2393ZM43.6475 1.33984V5H33.2139V1.33984H43.6475ZM15.6016 1.33984V5H5.17285V1.33984H15.6016ZM82.543 22.2393C82.543 32.1594 74.4301 40.1396 64.5 40.1396C56.6624 40.1396 49.9584 35.1679 47.4805 28.1953V55.002L47.4756 55.1904C47.3773 57.1242 45.7785 58.6621 43.8203 58.6621H33.6318C31.5729 58.6621 29.9226 57.0501 29.8047 55.0557L29.7979 54.8613C29.7817 53.0262 29.4505 51.2186 28.8281 49.54C28.1899 47.8186 27.263 46.279 26.1182 45C25.0455 43.8016 23.8041 42.8567 22.4668 42.1943L22.1982 42.0654C21.3034 41.6514 20.3751 41.3662 19.4336 41.209V54.8291C19.4333 56.9456 17.7181 58.6609 15.6016 58.6611H5.17285C3.12196 58.6611 1.44715 57.0508 1.34473 55.0254L1.33984 54.8291V5.17285C1.33984 3.05601 3.05591 1.33984 5.17285 1.33984V5L5.10547 5.01367C5.04351 5.03989 5 5.10134 5 5.17285V54.8291C5.00019 54.9004 5.04371 54.9611 5.10547 54.9873L5.17285 55.001H15.6016L15.668 54.9873C15.7094 54.9698 15.7423 54.9369 15.7598 54.8955L15.7734 54.8291V5.17285C15.7734 5.10124 15.7301 5.03982 15.668 5.01367L15.6016 5V1.33984C17.7182 1.3401 19.4336 3.05611 19.4336 5.17285V23.083C22.6149 23.2918 25.7388 24.0767 28.6816 25.4014L29.3828 5.04102L29.3945 4.84863C29.5605 2.87586 31.2128 1.33984 33.2139 1.33984V5L33.1475 5.0127C33.0866 5.0378 33.0434 5.09726 33.041 5.16699L32.2637 27.7422C32.2616 27.8032 32.2934 27.8616 32.3447 27.8945C38.0054 31.5128 39.5161 33.5322 43.7988 41.46C43.8124 41.4851 43.8203 41.5143 43.8203 41.543V5.17285C43.8203 5.10133 43.7768 5.03988 43.7148 5.01367L43.6475 5V1.33984C45.7643 1.33984 47.4805 3.05596 47.4805 5.17285V16.2832C49.9585 9.3108 56.6625 4.33984 64.5 4.33984C74.4301 4.33984 82.5429 12.3192 82.543 22.2393Z" fill="white"/>
</g>
<path d="M92 8C92 10.2091 90.2091 12 88 12C85.7909 12 84 10.2091 84 8C84 5.79086 85.7909 4 88 4C90.2091 4 92 5.79086 92 8Z" fill="#1E1E1E"/>
<path d="M92 8C92 5.79086 90.2091 4 88 4C85.7909 4 84 5.79086 84 8C84 10.2091 85.7909 12 88 12C90.2091 12 92 10.2091 92 8ZM95.6602 8C95.6602 12.2305 92.2305 15.6602 88 15.6602C83.7695 15.6602 80.3398 12.2305 80.3398 8C80.3398 3.7695 83.7695 0.339844 88 0.339844C92.2305 0.339844 95.6602 3.7695 95.6602 8Z" fill="white"/>
<defs>
<filter id="filter0_d_87_2" x="4.47167" y="5" width="74.9389" height="53.8006" filterUnits="userSpaceOnUse" color-interpolation-filters="sRGB">
<feFlood flood-opacity="0" result="BackgroundImageFix"/>
<feColorMatrix in="SourceAlpha" type="matrix" values="0 0 0 0 0 0 0 0 0 0 0 0 0 0 0 0 0 0 127 0" result="hardAlpha"/>
<feOffset dy="0.656094"/>
<feGaussianBlur stdDeviation="0.264164"/>
<feComposite in2="hardAlpha" operator="out"/>
<feColorMatrix type="matrix" values="0 0 0 0 0 0 0 0 0 0 0 0 0 0 0 0 0 0 0.25 0"/>
<feBlend mode="normal" in2="BackgroundImageFix" result="effect1_dropShadow_87_2"/>
<feBlend mode="normal" in="SourceGraphic" in2="effect1_dropShadow_87_2" result="shape"/>
</filter>
<filter id="filter1_d_87_2" x="0.811515" y="1.33984" width="82.2598" height="59.2899" filterUnits="userSpaceOnUse" color-interpolation-filters="sRGB">
<feFlood flood-opacity="0" result="BackgroundImageFix"/>
<feColorMatrix in="SourceAlpha" type="matrix" values="0 0 0 0 0 0 0 0 0 0 0 0 0 0 0 0 0 0 127 0" result="hardAlpha"/>
<feOffset dy="0.656094"/>
<feGaussianBlur stdDeviation="0.264164"/>
<feComposite in2="hardAlpha" operator="out"/>
<feColorMatrix type="matrix" values="0 0 0 0 0 0 0 0 0 0 0 0 0 0 0 0 0 0 0.25 0"/>
<feBlend mode="normal" in2="BackgroundImageFix" result="effect1_dropShadow_87_2"/>
<feBlend mode="normal" in="SourceGraphic" in2="effect1_dropShadow_87_2" result="shape"/>
</filter>
</defs>
</svg>
